<svg xmlns="http://www.w3.org/2000/svg" viewBox="0 0 256 256">
<rect width="256" height="256" fill="#f8c8d8"/>
<path d="M128 80 L100 50 L90 70 Z" fill="#fff"/>
<path d="M128 80 L156 50 L166 70 Z" fill="#fff"/>
<path d="M128 80 L100 50 L90 70 Z" fill="#ff8c42" transform="translate(0,5)"/>
<path d="M128 80 L156 50 L166 70 Z" fill="#ff8c42" transform="translate(0,5)"/>
<circle cx="128" cy="130" r="55" fill="#ff8c42"/>
<circle cx="110" cy="120" r="6" fill="#2d2d2d"/>
<circle cx="146" cy="120" r="6" fill="#2d2d2d"/>
<path d="M128 130 L128 145 L120 140 Z" fill="#2d2d2d"/>
<ellipse cx="128" cy="155" rx="15" ry="8" fill="#fff"/>
<path d="M200 100 Q205 95 210 100 Q215 105 210 110 Q205 115 200 110 Q195 105 200 100 Z" fill="#ffb3d9"/>
<circle cx="205" cy="105" r="2" fill="#fff" opacity="0.6"/>
</svg>